<?xml version="1.0" encoding="utf-8"?>
<!-- Generator: Adobe Illustrator 25.2.1, SVG Export Plug-In . SVG Version: 6.00 Build 0)  -->
<svg version="1.1" id="Layer_1" xmlns="http://www.w3.org/2000/svg" xmlns:xlink="http://www.w3.org/1999/xlink" x="0px" y="0px"
	 viewBox="0 0 372.8 81.8" style="enable-background:new 0 0 372.8 81.8;" xml:space="preserve">
<style type="text/css">
	.st0{enable-background:new    ;}
	.st1{fill:#FFFFFF;}
</style>
<g>
	<g>
		<g class="st0">
			<path class="st1" d="M109.2,62.4v-39H134v7.8h-16v8.3h14.8v7.8H118v15.1H109.2L109.2,62.4z"/>
			<path class="st1" d="M139.6,33.9v28.5h8.4V33.9H139.6z M139.6,21.3v9h8.4v-9H139.6z"/>
			<path class="st1" d="M172.3,62.4V43.5c0-1.3-0.6-2-2.1-2s-4.3,1.1-6.2,2v18.9h-8.4V33.9h6.3l0.9,2.2c3.5-1.7,8.1-2.8,11.4-2.8
				c4.9,0,6.6,3.6,6.6,9.1v20H172.3L172.3,62.4z"/>
			<path class="st1" d="M210.3,51.1v-6c0-6.2-2-11.8-11.5-11.8c-9.4,0-12.2,5.2-12.2,11.4v6.7c0,7,3.5,11.6,12.8,11.6
				c4,0,8.1-0.9,10.7-1.8l-1.2-6.3c-2.5,0.7-6.1,1.2-8.7,1.2c-3.9,0-5.2-0.9-5.2-4.2v-0.8H210.3z M195,43.6c0-2,1-3.6,3.9-3.6
				s3.5,1.6,3.5,3.6v1.2H195V43.6z"/>
			<path class="st1" d="M231.5,48.1l9.1,14.4h-8.5l-5-7.9l-5,7.9h-8.5l9.1-14.4l-8.8-14.2h8.3l5,7.8l5-7.8h8.3L231.5,48.1z"/>
		</g>
		<g class="st0">
			<path class="st1" d="M250.7,51.2c0,5.4,2.1,7.2,8.5,7.2c2.3,0,6.2-0.3,9.1-0.8l0.5,4.3c-2.8,0.6-6.9,1.1-9.8,1.1
				c-9.5,0-13.4-4.1-13.4-11.5V34.3c0-7.4,3.8-11.5,13.4-11.5c2.9,0,7,0.4,9.8,1.1l-0.5,4.3c-3-0.5-6.8-0.8-9.1-0.8
				c-6.4,0-8.5,1.8-8.5,7.2L250.7,51.2L250.7,51.2z"/>
			<path class="st1" d="M276.4,62.4V22.2l4.9-0.7v40.9H276.4L276.4,62.4z"/>
			<path class="st1" d="M300.9,33.3c-8.3,0-11.6,4.7-11.6,10.7v8.3c0,6,3.3,10.7,11.6,10.7s11.6-4.7,11.6-10.7V44
				C312.5,38,309.2,33.3,300.9,33.3z M307.6,52.5c0,4.2-2.2,6.3-6.7,6.3s-6.7-2.1-6.7-6.3v-8.6c0-4.2,2.2-6.3,6.7-6.3
				c4.4,0,6.6,2.1,6.7,6.3V52.5z"/>
			<path class="st1" d="M325,33.9v21.8c0,1.9,0.9,2.6,2.8,2.6c2.1,0,6.5-1.3,9.5-2.9V33.8h4.9v28.5h-4l-0.5-2.5
				c-3.2,1.5-8.1,3-11.5,3c-4.6,0-6.2-2.9-6.2-7.3V33.7h5L325,33.9L325,33.9z"/>
			<path class="st1" d="M367.9,22.2v12c-2.2-0.5-5.6-0.9-8.1-0.9c-6.7,0-9.3,3.6-9.3,9.3l0.1,11.7c0,5.7,2.7,8.7,8.3,8.7
				c3.7,0,7.1-1.3,9.4-3.2l0.4,2.6h4.1V21.5L367.9,22.2z M368,55.3c-2.1,1.9-5.3,3.4-8.1,3.4c-3.5,0-4.4-1.5-4.4-4.4V42.6
				c0-3.5,1.3-5,4.6-5c1.9,0,5.2,0.4,7.8,0.9h0.1V55.3z"/>
		</g>
	</g>
	<g>
		<path class="st1" d="M21.7,19.4l3.3-0.3c0.9-0.1,1.6-0.9,1.5-1.8l-0.2-2.4C24.4,15.9,22.8,17.5,21.7,19.4z"/>
		<path class="st1" d="M31.8,13.9C30.7,14,29.9,15,30,16.1l0.4,4.2c0.1,1,1,1.8,2,1.8c0.1,0,0.1,0,0.2,0l4.2-0.4
			c1.1-0.1,1.9-1.1,1.8-2.2l-0.4-4.2c0-0.2-0.1-0.5-0.2-0.7c-0.9-0.5-1.8-0.8-2.8-1L31.8,13.9z"/>
		<path class="st1" d="M31.9,65.5c0.9-0.8,2.6-1.6,5-2.4l-1,4c-0.4,2-1,3.4-1.7,4.2c-0.7,0.8-1.3,1.2-1.9,1.2c-0.5,0-1-0.1-1.3-0.2
			c-1.1-0.5-1.6-1.2-1.6-2.1C29.4,68.4,30.2,66.9,31.9,65.5z"/>
		<path class="st1" d="M42.8,34.6l-5.5,26.3c-3.9,1.3-6.6,2.4-8.2,3.5c-1,0.8-1.9,1.7-2.5,2.8c-0.6,1-0.9,2.4-0.9,4
			c-0.4,0-0.8,0.1-1.2,0.1c-5.2,0-9.6-3.4-11.3-8C5.6,61,0,54,0,45.6c0-10.2,8.3-18.5,18.5-18.5c0.6,0,1.3,0,1.9,0.1
			c-0.1-0.6-0.2-1.2-0.2-1.8c0-1.3,0.2-2.5,0.5-3.6c0.2,0.1,0.4,0.1,0.6,0.1h0.4l3.6-0.4c1.1-0.1,2-0.7,2.7-1.4v0.3
			c0.2,2.4,2.2,4.1,4.5,4.1h0.4l4.2-0.4c2.4-0.2,4.2-2.4,4-4.9L40.7,15c-0.1-0.3-0.1-0.5-0.2-0.8c2.6-2.7,6.2-4.5,10.3-4.5
			c1.7,0,3.3,0.3,4.8,0.9c-5.4,0.8-8.7,4.7-10.1,11.4l-1.1,5.4h-6.6v7.2H42.8z"/>
		<path class="st1" d="M96.4,48.6c0,9.2-7.5,16.7-16.7,16.7c-0.7,0-1.3,0-2-0.1C76.2,70.8,71.1,75,65,75c-2.7,0-5.3-0.9-7.4-2.3
			c-3.5,3.6-8.4,5.8-13.8,5.8c-1.9,0-3.7-0.3-5.5-0.8c3.9-1.5,6.5-5.1,7.6-10.8l6.9-32.3h7.1v-7.2h-5.7l1.2-5.3c0.4-2,1.1-3.4,2-4.3
			c0.9-0.9,1.9-1.3,3-1.3c0.5,0,1,0.2,1.5,0.6c0.5,0.3,0.8,0.9,0.8,1.5c0,0.6,0,1.3-0.1,2h3.1c0-0.2,0-0.4,0.1-0.7
			c1.2-0.3,2.3-0.5,3.6-0.5c7.1,0,12.9,5.7,13.1,12.8C90.4,33.5,96.3,40.4,96.4,48.6z"/>
	</g>
	<g>
		<g>
			<path class="st1" d="M32.6,22.1c-1.1,0.1-2.1-0.7-2.2-1.8L30,16.1c-0.1-1.1,0.7-2.1,1.8-2.2l4.2-0.4c1.1-0.1,2.1,0.7,2.2,1.8
				l0.4,4.2c0.1,1.1-0.7,2.1-1.8,2.2L32.6,22.1z"/>
		</g>
		<g>
			<path class="st1" d="M21.4,19.4c-0.9,0.1-1.8-0.6-1.8-1.5l-0.4-3.6c-0.1-0.9,0.6-1.8,1.5-1.8l3.6-0.4c0.9-0.1,1.8,0.6,1.8,1.5
				l0.4,3.6c0.1,0.9-0.6,1.8-1.5,1.8L21.4,19.4z"/>
		</g>
		<g>
			<path class="st1" d="M22.1,8.9c-0.7,0.1-1.3-0.5-1.4-1.2L20.4,5c-0.1-0.7,0.5-1.3,1.2-1.4l2.7-0.3c0.7-0.1,1.3,0.5,1.4,1.2
				L26,7.2c0.1,0.7-0.5,1.3-1.2,1.4L22.1,8.9z"/>
		</g>
	</g>
</g>
</svg>
